{"accessors" : [{"bufferView" : 0, "byteOffset" : 0, "componentType" : 5123, "count" : 177204, "type" : "SCALAR", "max" : [32881], "min" : [0]}, {"bufferView" : 1, "byteOffset" : 0, "componentType" : 5126, "count" : 32882, "type" : "VEC3", "max" : [0.6000000238418579, 0.20949570834636688, 0.4249400198459625], "min" : [-0.6000000238418579, -0.20949570834636688, -0.4249400198459625], "name" : "POSITION"}, {"bufferView" : 1, "byteOffset" : 12, "componentType" : 5126, "count" : 32882, "type" : "VEC3", "max" : [0.9999960064888, 1.0000022649765015, 0.9999972581863403], "min" : [-0.9999723434448242, -1.0000044107437134, -0.999997615814209], "name" : "NORMAL"}, {"bufferView" : 1, "byteOffset" : 24, "componentType" : 5126, "count" : 32882, "type" : "VEC2", "max" : [0.97314453125, 2], "min" : [0, 1], "name" : "TEXCOORD_0"}], "asset" : {"generator" : "Aspose.3D 24.9.1", "version" : "2.0"}, "buffers" : [{"uri" : "data:application/octet-stream;base64,", "byteLength" : 1406640}], "bufferViews" : [{"buffer" : 0, "byteOffset" : 0, "byteLength" : 354408, "target" : 34963}, {"buffer" : 0, "byteOffset" : 354412, "byteLength" : 1052224, "byteStride" : 32, "target" : 34962}], "images" : [{"uri" : "data:image/jpeg;base64,"}], "materials" : [{"name" : "Material_0", "pbrMetallicRoughness" : {"baseColorFactor" : [1, 1, 1, 1], "baseColorTexture" : {"index" : 0, "texCoord" : 0}, "metallicFactor" : 0, "roughnessFactor" : 0.8868629150101524}, "emissiveFactor" : [0, 0, 0], "alphaMode" : "OPAQUE", "doubleSided" : true}], "meshes" : [{"primitives" : [{"attributes" : {"POSITION" : 1, "NORMAL" : 2, "TEXCOORD_0" : 3}, "indices" : 0, "material" : 0, "mode" : 4}]}], "nodes" : [{"mesh" : 0, "name" : "Mesh_0_Material_0_0"}, {"children" : [0], "matrix" : [7.549791100775171E-06, 0, 100.00001525878879, 0, 100.00001525878851, 7.549791100775171E-06, -7.549791106326287E-06, 0, -7.549789954319763E-06, 99.99999999999973, 5.551115123125783E-13, 0, 0, 0, 0, 1], "name" : "Mesh_0"}, {"children" : [1], "name" : "RootNode"}, {"children" : [2], "matrix" : [0.009999999776482582, 0, 0, 0, 0, 0, 0.009999999776482582, 0, 0, -0.009999999776482582, 0, 0, 0, 0, 0, 1], "name" : "214568e4f8044d6ea97d2f7ba1239cb6.fbx"}, {"children" : [3], "matrix" : [1, 0, 0, 0, 0, 2.220446049250313E-16, -1, 0, 0, 1, 2.220446049250313E-16, 0, 0, 0, 0, 1], "name" : "Sketchfab_model"}], "samplers" : [{"magFilter" : 9729, "minFilter" : 9987, "wrapS" : 10497, "wrapT" : 10497}], "scene" : 0, "scenes" : [{"nodes" : [4]}], "textures" : [{"sampler" : 0, "source" : 0, "name" : ""}]}